v 17.280001 0.000000 17.280001
v 32.832001 0.000000 17.280001
v 32.533173 0.000000 20.314045
v 17.280001 0.720000 17.280001
v 32.533173 0.720000 20.314045
v 31.648174 0.720000 23.231493
v 17.280001 1.440000 17.280001
v 31.648174 1.440000 23.231493
v 30.211016 1.440000 25.920229
v 17.280001 2.160000 17.280001
v 30.211016 2.160000 25.920229
v 28.276926 2.160000 28.276926
v 17.280001 2.880000 17.280001
v 28.276926 2.880000 28.276926
v 25.920229 2.880000 30.211018
v 17.280001 3.600000 17.280001
v 25.920229 3.600000 30.211018
v 23.231493 3.600000 31.648174
v 17.280001 4.320000 17.280001
v 23.231493 4.320000 31.648174
v 20.314045 4.320000 32.533173
v 17.280001 5.040000 17.280001
v 20.314045 5.040000 32.533173
v 17.280001 5.040000 32.832001
v 17.280001 5.760000 17.280001
v 17.280001 5.760000 32.832001
v 14.245956 5.760000 32.533173
v 17.280001 6.480000 17.280001
v 14.245956 6.480000 32.533173
v 11.328506 6.480000 31.648174
v 17.280001 7.200000 17.280001
v 11.328506 7.200000 31.648174
v 8.639771 7.200000 30.211016
v 17.280001 7.920000 17.280001
v 8.639771 7.920000 30.211016
v 6.283076 7.920000 28.276926
v 17.280001 8.639999 17.280001
v 6.283076 8.639999 28.276926
v 4.348985 8.639999 25.920229
v 17.280001 9.360000 17.280001
v 4.348985 9.360000 25.920229
v 2.911825 9.360000 23.231491
v 17.280001 10.080000 17.280001
v 2.911825 10.080000 23.231491
v 2.026828 10.080000 20.314045
v 17.280001 10.799999 17.280001
v 2.026828 10.799999 20.314045
v 1.728001 10.799999 17.279999
v 17.280001 11.520000 17.280001
v 1.728001 11.520000 17.279999
v 2.026829 11.520000 14.245954
v 17.280001 12.240000 17.280001
v 2.026829 12.240000 14.245954
v 2.911827 12.240000 11.328508
v 17.280001 12.959999 17.280001
v 2.911827 12.959999 11.328508
v 4.348987 12.959999 8.639771
v 17.280001 13.679999 17.280001
v 4.348987 13.679999 8.639771
v 6.283078 13.679999 6.283074
v 17.280001 14.400000 17.280001
v 6.283078 14.400000 6.283074
v 8.639776 14.400000 4.348983
v 17.280001 15.119999 17.280001
v 8.639776 15.119999 4.348983
v 11.328512 15.119999 2.911824
v 17.280001 15.839999 17.280001
v 11.328512 15.839999 2.911824
v 14.245955 15.839999 2.026829
v 17.280001 16.559999 17.280001
v 14.245955 16.559999 2.026829
v 17.280001 16.559999 1.728001
v 17.280001 17.279999 17.280001
v 17.280001 17.279999 1.728001
v 20.314047 17.279999 2.026829
v 17.280001 18.000000 17.280001
v 20.314047 18.000000 2.026829
v 23.231497 18.000000 2.911828
v 17.280001 18.719999 17.280001
v 23.231497 18.719999 2.911828
v 25.920233 18.719999 4.348988
v 17.280001 19.439999 17.280001
v 25.920233 19.439999 4.348988
v 28.276928 19.439999 6.283080
v 17.280001 20.160000 17.280001
v 28.276928 20.160000 6.283080
v 30.211016 20.160000 8.639771
v 17.280001 20.879999 17.280001
v 30.211016 20.879999 8.639771
v 31.648176 20.879999 11.328508
v 17.280001 21.599998 17.280001
v 31.648176 21.599998 11.328508
v 32.533173 21.599998 14.245957
v 17.280001 22.320000 17.280001
v 32.533173 22.320000 14.245957
v 32.832001 22.320000 17.280003
v 17.280001 23.039999 17.280001
v 32.832001 23.039999 17.280003
v 32.533173 23.039999 20.314049
v 17.280001 23.759998 17.280001
v 32.533173 23.759998 20.314049
v 31.648172 23.759998 23.231499
v 17.280001 24.480000 17.280001
v 31.648172 24.480000 23.231499
v 30.211012 24.480000 25.920235
v 17.280001 25.199999 17.280001
v 30.211012 25.199999 25.920235
v 28.276926 25.199999 28.276926
v 17.280001 25.919998 17.280001
v 28.276926 25.919998 28.276926
v 25.920227 25.919998 30.211018
v 17.280001 26.639999 17.280001
v 25.920227 26.639999 30.211018
v 23.231491 26.639999 31.648176
v 17.280001 27.359999 17.280001
v 23.231491 27.359999 31.648176
v 20.314041 27.359999 32.533173
v 17.280001 28.079998 17.280001
v 20.314041 28.079998 32.533173
v 17.279995 28.079998 32.832001
v 17.280001 28.799999 17.280001
v 17.279995 28.799999 32.832001
v 14.245956 28.799999 32.533173
v 17.280001 29.519999 17.280001
v 14.245956 29.519999 32.533173
v 11.328501 29.519999 31.648172
v 17.280001 30.239998 17.280001
v 11.328501 30.239998 31.648172
v 8.639771 30.239998 30.211016
v 17.280001 30.959999 17.280001
v 8.639771 30.959999 30.211016
v 6.283069 30.959999 28.276918
v 17.280001 31.679998 17.280001
v 6.283069 31.679998 28.276918
v 4.348983 31.679998 25.920225
v 17.280001 32.399998 17.280001
v 4.348983 32.399998 25.920225
v 2.911827 32.399998 23.231495
v 17.280001 33.119999 17.280001
v 2.911827 33.119999 23.231495
v 2.026827 33.119999 20.314039
v 17.280001 33.840000 17.280001
v 2.026827 33.840000 20.314039
v 1.728001 33.840000 17.280001
v 17.280001 34.559998 17.280001
v 1.728001 34.559998 17.280001
v 2.026829 34.559998 14.245947
v 17.280001 35.279999 17.280001
v 2.026829 35.279999 14.245947
v 2.911828 35.279999 11.328506
v 17.280001 36.000000 17.280001
v 2.911828 36.000000 11.328506
v 4.348992 36.000000 8.639763
v 17.280001 36.719997 17.280001
v 4.348992 36.719997 8.639763
v 6.283080 36.719997 6.283072
v 17.280001 37.439999 17.280001
v 6.283080 37.439999 6.283072
v 8.639771 37.439999 4.348986
v 17.280001 38.160000 17.280001
v 8.639771 38.160000 4.348986
v 11.328515 38.160000 2.911823
v 17.280001 38.879997 17.280001
v 11.328515 38.879997 2.911823
v 14.245957 38.879997 2.026828
v 17.280001 39.599998 17.280001
v 14.245957 39.599998 2.026828
v 17.280010 39.599998 1.728001
v 17.280001 40.320000 17.280001
v 17.280010 40.320000 1.728001
v 20.314049 40.320000 2.026829
v 17.280001 41.039997 17.280001
v 20.314049 41.039997 2.026829
v 23.231491 41.039997 2.911826
v 17.280001 41.759998 17.280001
v 23.231491 41.759998 2.911826
v 25.920235 41.759998 4.348989
v 17.280001 42.480000 17.280001
v 25.920235 42.480000 4.348989
v 28.276926 42.480000 6.283076
v 17.280001 43.199997 17.280001
v 28.276926 43.199997 6.283076
v 30.211021 43.199997 8.639780
v 17.280001 43.919998 17.280001
v 30.211021 43.919998 8.639780
v 31.648176 43.919998 11.328511
v 17.280001 44.639999 17.280001
v 31.648176 44.639999 11.328511
v 32.533176 44.639999 14.245967
v 17.280001 45.359997 17.280001
v 32.533176 45.359997 14.245967
v 32.832001 45.359997 17.280006
f 1 3 2
f 4 3 1
f 4 5 3
f 4 6 5
f 7 6 4
f 7 8 6
f 7 9 8
f 10 9 7
f 10 11 9
f 10 12 11
f 13 12 10
f 13 14 12
f 13 15 14
f 16 15 13
f 16 17 15
f 16 18 17
f 19 18 16
f 19 20 18
f 19 21 20
f 22 21 19
f 22 23 21
f 22 24 23
f 25 24 22
f 25 26 24
f 25 27 26
f 28 27 25
f 28 29 27
f 28 30 29
f 31 30 28
f 31 32 30
f 31 33 32
f 34 33 31
f 34 35 33
f 34 36 35
f 37 36 34
f 37 38 36
f 37 39 38
f 40 39 37
f 40 41 39
f 40 42 41
f 43 42 40
f 43 44 42
f 43 45 44
f 46 45 43
f 46 47 45
f 46 48 47
f 49 48 46
f 49 50 48
f 49 51 50
f 52 51 49
f 52 53 51
f 52 54 53
f 55 54 52
f 55 56 54
f 55 57 56
f 58 57 55
f 58 59 57
f 58 60 59
f 61 60 58
f 61 62 60
f 61 63 62
f 64 63 61
f 64 65 63
f 64 66 65
f 67 66 64
f 67 68 66
f 67 69 68
f 70 69 67
f 70 71 69
f 70 72 71
f 73 72 70
f 73 74 72
f 73 75 74
f 76 75 73
f 76 77 75
f 76 78 77
f 79 78 76
f 79 80 78
f 79 81 80
f 82 81 79
f 82 83 81
f 82 84 83
f 85 84 82
f 85 86 84
f 85 87 86
f 88 87 85
f 88 89 87
f 88 90 89
f 91 90 88
f 91 92 90
f 91 93 92
f 94 93 91
f 94 95 93
f 94 96 95
f 97 96 94
f 97 98 96
f 97 99 98
f 100 99 97
f 100 101 99
f 100 102 101
f 103 102 100
f 103 104 102
f 103 105 104
f 106 105 103
f 106 107 105
f 106 108 107
f 109 108 106
f 109 110 108
f 109 111 110
f 112 111 109
f 112 113 111
f 112 114 113
f 115 114 112
f 115 116 114
f 115 117 116
f 118 117 115
f 118 119 117
f 118 120 119
f 121 120 118
f 121 122 120
f 121 123 122
f 124 123 121
f 124 125 123
f 124 126 125
f 127 126 124
f 127 128 126
f 127 129 128
f 130 129 127
f 130 131 129
f 130 132 131
f 133 132 130
f 133 134 132
f 133 135 134
f 136 135 133
f 136 137 135
f 136 138 137
f 139 138 136
f 139 140 138
f 139 141 140
f 142 141 139
f 142 143 141
f 142 144 143
f 145 144 142
f 145 146 144
f 145 147 146
f 148 147 145
f 148 149 147
f 148 150 149
f 151 150 148
f 151 152 150
f 151 153 152
f 154 153 151
f 154 155 153
f 154 156 155
f 157 156 154
f 157 158 156
f 157 159 158
f 160 159 157
f 160 161 159
f 160 162 161
f 163 162 160
f 163 164 162
f 163 165 164
f 166 165 163
f 166 167 165
f 166 168 167
f 169 168 166
f 169 170 168
f 169 171 170
f 172 171 169
f 172 173 171
f 172 174 173
f 175 174 172
f 175 176 174
f 175 177 176
f 178 177 175
f 178 179 177
f 178 180 179
f 181 180 178
f 181 182 180
f 181 183 182
f 184 183 181
f 184 185 183
f 184 186 185
f 187 186 184
f 187 188 186
f 187 189 188
f 190 189 187
f 190 191 189
f 190 192 191
